<?xml version="1.0" standalone="no"?>
<!DOCTYPE svg PUBLIC "-//W3C//DTD SVG 20010904//EN"
 "http://www.w3.org/TR/2001/REC-SVG-20010904/DTD/svg10.dtd">
<svg version="1.0" xmlns="http://www.w3.org/2000/svg"
 width="1692.000000pt" height="855.000000pt" viewBox="0 0 1692.000000 855.000000"
 preserveAspectRatio="xMidYMid meet">
<metadata>
Created by potrace 1.12, written by Peter Selinger 2001-2015
</metadata>
<g transform="translate(0.000000,855.000000) scale(0.100000,-0.100000)"
fill="#000000" stroke="none">
<path d="M13901 8540 c-275 -23 -601 -99 -811 -188 l-44 -19 -183 -1534 c-100
-844 -181 -1538 -180 -1543 2 -4 414 726 916 1624 502 897 911 1633 909 1636
-22 21 -442 38 -607 24z"/>
<path d="M14676 8463 c-7 -16 -364 -786 -791 -1713 -427 -927 -782 -1694 -788
-1705 -6 -11 9 -3 34 20 178 159 2919 2700 2919 2705 0 11 -176 160 -280 237
-283 209 -594 357 -933 447 -153 40 -145 40 -161 9z"/>
<path d="M12760 8197 c-106 -61 -229 -142 -335 -222 -186 -139 -456 -417 -582
-597 l-25 -38 197 -997 c109 -549 201 -1001 204 -1005 4 -4 135 641 293 1435
157 793 285 1442 285 1443 -1 1 -18 -8 -37 -19z"/>
<path d="M14855 6254 c-715 -774 -1331 -1440 -1369 -1481 -64 -69 -66 -73 -35
-60 53 23 3403 1570 3408 1573 14 12 -76 333 -136 484 -88 223 -233 483 -371
664 -57 76 -185 226 -192 226 -3 0 -590 -633 -1305 -1406z"/>
<path d="M11523 6790 c-83 -213 -128 -376 -163 -594 -33 -200 -47 -156 188
-575 114 -204 208 -367 210 -363 2 8 -186 1608 -192 1627 -1 5 -21 -37 -43
-95z"/>
<path d="M15263 5202 c-892 -499 -1619 -908 -1615 -910 15 -5 3035 357 3042
365 4 4 26 58 48 118 133 359 177 637 169 1045 -2 135 -8 255 -13 267 -9 22
-81 -17 -1631 -885z"/>
<path d="M8880 3133 c0 -1580 4 -2483 10 -2527 23 -157 85 -281 200 -397 82
-83 156 -125 270 -156 85 -23 311 -23 475 0 146 21 365 67 365 77 0 7 -137
301 -143 306 -1 2 -38 -6 -82 -17 -272 -66 -477 -75 -572 -26 -86 44 -160 156
-183 277 -7 34 -10 893 -10 2486 l0 2434 -165 0 -165 0 0 -2457z"/>
<path d="M1820 5469 c-230 -14 -486 -61 -680 -125 -110 -36 -319 -133 -405
-187 -273 -171 -487 -437 -563 -702 -43 -148 -47 -184 -47 -420 1 -201 4 -243
24 -335 54 -251 164 -452 346 -632 245 -244 598 -391 1085 -453 69 -9 256 -20
417 -25 279 -9 412 -18 588 -41 401 -52 745 -210 938 -432 154 -176 212 -345
211 -617 -1 -219 -37 -350 -141 -507 -199 -303 -564 -504 -1064 -587 -463 -77
-874 -44 -1302 104 -341 118 -600 277 -859 528 l-117 114 -127 -108 -126 -109
119 -115 c293 -285 747 -561 1108 -670 581 -177 1338 -150 1880 67 227 91 414
208 570 355 273 259 395 545 395 928 0 381 -110 662 -354 905 -117 116 -214
185 -364 260 -343 170 -680 236 -1307 255 -413 13 -635 43 -852 115 -195 65
-341 151 -464 274 -120 121 -190 236 -233 383 -71 244 -56 551 37 759 63 143
214 318 352 410 191 127 411 205 721 254 160 26 519 31 704 10 489 -55 841
-234 1067 -543 31 -42 60 -81 64 -86 8 -9 319 113 319 125 0 4 -40 60 -88 125
-184 249 -358 402 -588 517 -249 125 -512 186 -881 207 -195 11 -201 11 -383
-1z"/>
<path d="M15140 4114 c-778 -155 -1417 -283 -1420 -284 -8 -3 1932 -390 1956
-390 12 0 65 33 118 74 226 172 405 352 575 579 80 108 198 294 190 301 -2 1
-641 -124 -1419 -280z"/>
<path d="M6105 4085 c-521 -85 -970 -383 -1277 -849 -365 -554 -457 -1228
-253 -1853 223 -681 760 -1193 1405 -1342 212 -49 514 -54 715 -11 719 152
1308 736 1500 1484 51 202 69 365 62 591 -20 703 -363 1331 -934 1711 -189
126 -395 212 -609 255 -143 28 -472 36 -609 14z m464 -331 c176 -25 365 -95
529 -196 606 -371 940 -1140 798 -1840 -115 -569 -458 -1029 -936 -1257 -351
-167 -779 -176 -1145 -24 -233 97 -490 310 -661 548 -232 323 -380 836 -345
1198 40 424 215 816 494 1104 262 271 560 431 877 472 107 14 276 12 389 -5z"/>
<path d="M10630 2055 l0 -1985 165 0 165 0 0 1239 0 1239 41 118 c88 257 205
451 378 625 170 172 340 276 565 348 112 36 301 71 384 71 109 0 102 -11 102
173 l0 160 -177 -6 c-253 -8 -452 -56 -653 -157 -219 -110 -455 -314 -617
-535 l-22 -30 -1 363 0 362 -165 0 -165 0 0 -1985z"/>
<path d="M13640 3367 c3 -3 163 -94 355 -202 l350 -196 79 6 c113 8 324 49
462 89 151 43 326 108 317 116 -5 4 -343 46 -753 95 -410 48 -761 90 -780 93
-19 2 -33 2 -30 -1z"/>
</g>
</svg>
